<?xml version="1.0" encoding="UTF-8" standalone="no"?>
<svg
   xmlns:dc="http://purl.org/dc/elements/1.1/"
   xmlns:cc="http://creativecommons.org/ns#"
   xmlns:rdf="http://www.w3.org/1999/02/22-rdf-syntax-ns#"
   xmlns:svg="http://www.w3.org/2000/svg"
   xmlns="http://www.w3.org/2000/svg"
   xmlns:sodipodi="http://sodipodi.sourceforge.net/DTD/sodipodi-0.dtd"
   xmlns:inkscape="http://www.inkscape.org/namespaces/inkscape"
   width="200"
   height="300"
   viewBox="0 0 160.00001 240.00001"
   version="1.1"
   id="svg2"
   inkscape:version="0.91 r13725"
   sodipodi:docname="oo_logo.svg">
  <metadata
     id="metadata15">
    <rdf:RDF>
      <cc:Work
         rdf:about="">
        <dc:format>image/svg+xml</dc:format>
        <dc:type
           rdf:resource="http://purl.org/dc/dcmitype/StillImage" />
        <dc:title></dc:title>
      </cc:Work>
    </rdf:RDF>
  </metadata>
  <defs
     id="defs13" />
  <sodipodi:namedview
     pagecolor="#ffffff"
     bordercolor="#666666"
     borderopacity="1"
     objecttolerance="10"
     gridtolerance="10"
     guidetolerance="10"
     inkscape:pageopacity="0"
     inkscape:pageshadow="2"
     inkscape:window-width="1274"
     inkscape:window-height="992"
     id="namedview11"
     showgrid="false"
     inkscape:zoom="1.4252201"
     inkscape:cx="63.099627"
     inkscape:cy="44.291062"
     inkscape:window-x="0"
     inkscape:window-y="0"
     inkscape:window-maximized="1"
     inkscape:current-layer="surface668"
     units="px" />
  <g
     id="surface668"
     transform="translate(0,169.1343)">
    <path
       style="fill:#2899c7;fill-opacity:1;fill-rule:nonzero;stroke:none"
       d="m 111.4575,-43.427641 c -1.51563,0.683593 -2.625,1.890624 -3.34375,3.625 -0.71875,1.738281 -1.07422,4.207031 -1.07422,7.40625 0,3.203124 0.35547,5.671874 1.07422,7.40625 0.71875,1.734374 1.82812,2.945312 3.34375,3.628906 1.51172,0.683594 3.63281,1.023437 6.36328,1.023437 2.75391,0 4.88672,-0.339843 6.39844,-1.023437 1.51172,-0.683594 2.625,-1.894532 3.33984,-3.628906 0.71875,-1.734376 1.07813,-4.203126 1.07813,-7.40625 0,-3.199219 -0.35938,-5.667969 -1.07813,-7.40625 -0.71484,-1.734376 -1.82812,-2.941407 -3.33984,-3.625 -1.51172,-0.683594 -3.64453,-1.023438 -6.39844,-1.023438 -2.73047,0 -4.85156,0.339844 -6.36328,1.023438 m 9.48437,11.03125 c 0,2.664062 -0.20703,4.441406 -0.62109,5.324218 -0.41406,0.886719 -1.24609,1.328125 -2.5,1.328125 -1.25391,0 -2.08984,-0.441406 -2.50391,-1.328125 -0.41406,-0.882812 -0.62109,-2.660156 -0.62109,-5.324218 0,-2.664063 0.20703,-4.4375 0.62109,-5.320313 0.41407,-0.886719 1.25,-1.328125 2.50391,-1.328125 1.25391,0 2.08594,0.441406 2.5,1.328125 0.41406,0.882813 0.62109,2.65625 0.62109,5.320313 m 9.08594,5.894531 c -0.34375,0.347656 -0.51953,0.980469 -0.51953,1.898437 l 0,1.378906 c 0,0.917969 0.17578,1.550782 0.51953,1.894532 0.34766,0.347656 0.98047,0.523437 1.89844,0.523437 l 1.57812,0 c 0.91797,0 1.55078,-0.175781 1.89844,-0.523437 0.34766,-0.34375 0.51953,-0.976563 0.51953,-1.894532 l 0,-1.378906 c 0,-0.917968 -0.17187,-1.550781 -0.51953,-1.898437 -0.34766,-0.347657 -0.98047,-0.519531 -1.89844,-0.519531 l -1.57812,0 c -0.91797,0 -1.55078,0.171874 -1.89844,0.519531 m 8.03125,0 c -0.35156,0.347656 -0.52344,0.980469 -0.52344,1.898437 l 0,1.378906 c 0,0.917969 0.17188,1.550782 0.52344,1.894532 0.34375,0.347656 0.97656,0.523437 1.89453,0.523437 l 1.57813,0 c 0.91797,0 1.55078,-0.175781 1.89843,-0.523437 0.34375,-0.34375 0.51954,-0.976563 0.51954,-1.894532 l 0,-1.378906 c 0,-0.917968 -0.17579,-1.550781 -0.51954,-1.898437 -0.34765,-0.347657 -0.98046,-0.519531 -1.89843,-0.519531 l -1.57813,0 c -0.91797,0 -1.55078,0.171874 -1.89453,0.519531 m 8.02344,0 c -0.34766,0.347656 -0.52344,0.980469 -0.52344,1.898437 l 0,1.378906 c 0,0.917969 0.17578,1.550782 0.52344,1.894532 0.34765,0.347656 0.97656,0.523437 1.89844,0.523437 l 1.57812,0 c 0.91797,0 1.55078,-0.175781 1.89844,-0.523437 0.34765,-0.34375 0.51953,-0.976563 0.51953,-1.894532 l 0,-1.378906 c 0,-0.917968 -0.17188,-1.550781 -0.51953,-1.898437 -0.34766,-0.347657 -0.98047,-0.519531 -1.89844,-0.519531 l -1.57812,0 c -0.92188,0 -1.55079,0.171874 -1.89844,0.519531"
       id="path5"
       inkscape:connector-curvature="0" />
    <path
       style="fill:#211e1e;fill-opacity:1;fill-rule:nonzero;stroke:none"
       d="m 14.660625,-43.427641 c -1.511719,0.683593 -2.625,1.890624 -3.339844,3.625 -0.71875,1.738281 -1.078125,4.207031 -1.078125,7.40625 0,3.203124 0.359375,5.671874 1.078125,7.40625 0.714844,1.734374 1.828125,2.945312 3.339844,3.628906 1.511718,0.683594 3.632812,1.023437 6.363281,1.023437 2.757813,0 4.890625,-0.339843 6.402344,-1.023437 1.507812,-0.683594 2.621093,-1.894532 3.339843,-3.628906 0.714844,-1.734376 1.074219,-4.203126 1.074219,-7.40625 0,-3.199219 -0.359375,-5.667969 -1.074219,-7.40625 -0.71875,-1.734376 -1.832031,-2.941407 -3.339843,-3.625 -1.511719,-0.683594 -3.644531,-1.023438 -6.402344,-1.023438 -2.730469,0 -4.851563,0.339844 -6.363281,1.023438 m 9.488281,11.03125 c 0,2.664062 -0.207031,4.441406 -0.621094,5.324218 -0.414062,0.886719 -1.25,1.328125 -2.503906,1.328125 -1.253906,0 -2.085937,-0.441406 -2.5,-1.328125 -0.414063,-0.882812 -0.621094,-2.660156 -0.621094,-5.324218 0,-2.664063 0.207031,-4.4375 0.621094,-5.320313 0.414063,-0.886719 1.246094,-1.328125 2.5,-1.328125 1.253906,0 2.089844,0.441406 2.503906,1.328125 0.414063,0.882813 0.621094,2.65625 0.621094,5.320313 m 17.128906,11.589843 0,-7.996093 c 1.140625,0.136718 2.316407,0.203124 3.527344,0.203124 3.222656,0 5.460937,-0.550781 6.71875,-1.644531 1.25,-1.097656 1.878906,-3.160156 1.878906,-6.183593 0,-3.066407 -0.675781,-5.148438 -2.03125,-6.246094 -1.355469,-1.097656 -3.878906,-1.644532 -7.574219,-1.644532 -4.253906,0 -7.523437,0.113282 -9.808593,0.335938 l 0,23.175781 z m 0,-18.375 2.351563,0 c 0.984375,0 1.644531,0.1875 1.980468,0.554688 0.335938,0.371093 0.503907,1.105469 0.503907,2.199219 0,1.078124 -0.167969,1.792968 -0.503907,2.152343 -0.335937,0.359375 -0.996093,0.535157 -1.980468,0.535157 l -2.351563,0 z m 21.664065,-4.800781 -7.22266,0 0,23.175781 7.22266,0 z m 13.82031,15.988281 c 0.21094,0.199219 0.32031,0.457031 0.32031,0.769531 0,0.316407 -0.15234,0.527344 -0.45312,0.640626 -0.30469,0.113281 -0.91406,0.167968 -1.83203,0.167968 -1.1875,0 -3.9961,-0.05469 -8.42969,-0.167968 l -0.4375,5.105468 c 2.95703,0.757813 5.94531,1.140625 8.96875,1.140625 3.58203,0 6.05469,-0.527343 7.42187,-1.578125 1.36719,-1.050781 2.04688,-2.890625 2.04688,-5.507812 0,-1.726563 -0.39063,-3.125 -1.17188,-4.199219 -0.78515,-1.074219 -2.1289,-2.027344 -4.03125,-2.855469 l -4.19921,-1.746094 c -0.78516,-0.3125 -1.31641,-0.574218 -1.59375,-0.789062 -0.28125,-0.210938 -0.42188,-0.476562 -0.42188,-0.789062 0,-0.359376 0.14453,-0.59375 0.4375,-0.707032 0.28906,-0.109375 0.85938,-0.164062 1.71094,-0.164062 2.7539,0 5.47656,0.01953 8.16015,0.06641 l 0.44141,-4.671875 c -2.24219,-0.781254 -5.05078,-1.171879 -8.43359,-1.171879 -3.53516,0 -6.01172,0.484375 -7.42188,1.460938 -1.41015,0.972656 -2.11328,2.757812 -2.11328,5.355468 0,1.703125 0.39063,3.085938 1.17188,4.148438 0.78515,1.0625 2.11718,2.007812 4,2.835937 l 4.60156,2.015625 c 0.625,0.226563 1.04687,0.4375 1.25781,0.640625 m 29.035153,-15.988281 -20.253903,0 0,5.441406 6.48438,0 0,17.734375 7.289049,0 0,-17.734375 6.480474,0 z m 0,0"
       id="path7"
       inkscape:connector-curvature="0" />
    <path
       style="fill:#211e1e;fill-opacity:1;fill-rule:nonzero;stroke:none"
       d="m 14.660625,-72.798735 c -1.511719,0.683594 -2.625,1.890625 -3.339844,3.625 -0.71875,1.738281 -1.078125,4.207031 -1.078125,7.40625 0,3.203125 0.359375,5.671875 1.078125,7.40625 0.714844,1.738281 1.828125,2.945312 3.339844,3.628906 1.511718,0.683594 3.632812,1.023438 6.363281,1.023438 2.757813,0 4.890625,-0.339844 6.402344,-1.023438 1.507812,-0.683594 2.621093,-1.890625 3.339843,-3.628906 0.714844,-1.734375 1.074219,-4.203125 1.074219,-7.40625 0,-3.199219 -0.359375,-5.667969 -1.074219,-7.40625 -0.71875,-1.734375 -1.832031,-2.941406 -3.339843,-3.625 -1.511719,-0.683594 -3.644531,-1.023438 -6.402344,-1.023438 -2.730469,0 -4.851563,0.339844 -6.363281,1.023438 m 9.488281,11.03125 c 0,2.667968 -0.207031,4.441406 -0.621094,5.324218 -0.414062,0.886719 -1.25,1.328126 -2.503906,1.328126 -1.253906,0 -2.085937,-0.441407 -2.5,-1.328126 -0.414063,-0.882812 -0.621094,-2.65625 -0.621094,-5.324218 0,-2.664063 0.207031,-4.4375 0.621094,-5.320313 0.414063,-0.886719 1.246094,-1.328125 2.5,-1.328125 1.253906,0 2.089844,0.441406 2.503906,1.328125 0.414063,0.882813 0.621094,2.65625 0.621094,5.320313 m 27.878906,-11.585938 -20.253906,0 0,5.441406 6.480469,0 0,17.734376 7.289062,0 0,-17.734376 6.484375,0 z m 14.207035,23.175782 7.42187,0 -6.01172,-21.292969 c -0.16015,-0.5625 -0.46093,-1.015625 -0.90625,-1.363281 -0.44922,-0.347657 -0.96484,-0.519532 -1.54687,-0.519532 l -6.61719,0 c -0.58203,0 -1.09766,0.171875 -1.54297,0.519532 -0.44922,0.347656 -0.7539,0.800781 -0.91015,1.363281 l -6.011724,21.292969 7.425784,0 1.17187,-5.003907 6.34766,0 z m -6.35157,-10.109376 1.14454,-4.972656 c 0.13281,-0.714844 0.26562,-1.601562 0.40234,-2.652344 l 0.90625,0 c 0.0664,0.714844 0.20312,1.601563 0.40234,2.652344 l 1.14453,4.972656 z m 27.27344,-13.066406 -2.98828,15.082032 c -0.20312,0.984374 -0.34766,1.867187 -0.43359,2.652343 l -0.8086,0 c -0.25,-1.566406 -0.39453,-2.453125 -0.4375,-2.652343 l -2.98828,-15.082032 -7.49219,0 5.64454,21.226563 c 0.13281,0.582031 0.42578,1.054687 0.875,1.410156 0.44531,0.359375 0.98437,0.539063 1.60937,0.539063 l 6.38281,0 c 0.625,0 1.16407,-0.179688 1.60938,-0.539063 0.44922,-0.355469 0.73828,-0.828125 0.875,-1.410156 l 5.64453,-21.226563 z m 21.964843,23.175782 7.42188,0 -6.00782,-21.292969 c -0.16015,-0.5625 -0.46093,-1.015625 -0.91015,-1.363281 -0.44922,-0.347657 -0.96094,-0.519532 -1.54297,-0.519532 l -6.61719,0 c -0.58203,0 -1.09765,0.171875 -1.546874,0.519532 -0.44922,0.347656 -0.75,0.800781 -0.90625,1.363281 l -6.011719,21.292969 7.421873,0 1.17969,-5.003907 6.34766,0 z m -6.34375,-10.109376 1.13672,-4.972656 c 0.13672,-0.714844 0.27344,-1.601562 0.40625,-2.652344 l 0.90625,0 c 0.0664,0.714844 0.19922,1.601563 0.40234,2.652344 l 1.14454,4.972656 z m 29.85547,-13.066406 0,9.472656 c 0.0234,1.140626 0.13672,2.539063 0.33594,4.195313 l -0.23438,0 c -0.58203,-1.566406 -1.17578,-2.886719 -1.78125,-3.960937 l -4.83594,-7.589844 c -0.46875,-0.785156 -0.88281,-1.332032 -1.24218,-1.648438 -0.35938,-0.3125 -0.88672,-0.46875 -1.58203,-0.46875 l -2.78516,0 c -1.67969,0 -2.51562,0.839844 -2.51562,2.519532 l 0,20.65625 6.71484,0 0,-9.808594 c 0,-1.253906 -0.11328,-2.664063 -0.33985,-4.230469 l 0.23829,0 c 0.47265,1.632813 0.98437,2.953125 1.54687,3.960937 l 5.03906,7.960938 c 0.44532,0.785156 0.85157,1.332031 1.22266,1.644531 0.37109,0.316407 0.90234,0.472657 1.59375,0.472657 l 2.78906,0 c 1.67969,0 2.51953,-0.839844 2.51953,-2.519532 l 0,-20.65625 z m 0,0"
       id="path9"
       inkscape:connector-curvature="0" />
  </g>
</svg>
