<?xml version="1.0" encoding="UTF-8" standalone="no"?>
<svg
   xmlns:dc="http://purl.org/dc/elements/1.1/"
   xmlns:cc="http://creativecommons.org/ns#"
   xmlns:rdf="http://www.w3.org/1999/02/22-rdf-syntax-ns#"
   xmlns:svg="http://www.w3.org/2000/svg"
   xmlns="http://www.w3.org/2000/svg"
   xmlns:sodipodi="http://sodipodi.sourceforge.net/DTD/sodipodi-0.dtd"
   xmlns:inkscape="http://www.inkscape.org/namespaces/inkscape"
   width="200"
   height="300"
   viewBox="0 0 160.00001 240"
   version="1.1"
   id="svg2"
   inkscape:version="0.91 r13725"
   sodipodi:docname="vipuvoimaa_logo.svg">
  <metadata
     id="metadata43">
    <rdf:RDF>
      <cc:Work
         rdf:about="">
        <dc:format>image/svg+xml</dc:format>
        <dc:type
           rdf:resource="http://purl.org/dc/dcmitype/StillImage" />
        <dc:title></dc:title>
      </cc:Work>
    </rdf:RDF>
  </metadata>
  <defs
     id="defs41" />
  <sodipodi:namedview
     pagecolor="#ffffff"
     bordercolor="#666666"
     borderopacity="1"
     objecttolerance="10"
     gridtolerance="10"
     guidetolerance="10"
     inkscape:pageopacity="0"
     inkscape:pageshadow="2"
     inkscape:window-width="1274"
     inkscape:window-height="992"
     id="namedview39"
     showgrid="false"
     inkscape:zoom="0.85513508"
     inkscape:cx="-33.328068"
     inkscape:cy="125.43875"
     inkscape:window-x="0"
     inkscape:window-y="0"
     inkscape:window-maximized="1"
     inkscape:current-layer="svg2"
     units="px" />
  <g
     id="surface606"
     transform="matrix(0.63696101,0,0,0.63696101,-7.4836673,52.422169)">
    <path
       style="fill:#000000;fill-opacity:1;fill-rule:nonzero;stroke:none"
       d="m 35.335938,168.55469 c 0.277343,-0.21875 0.597656,-0.46485 0.960937,-0.75391 0.363281,-0.28906 0.75,-0.59375 1.15625,-0.91406 0.410156,-0.31641 0.792969,-0.625 1.152344,-0.91016 0.359375,-0.28515 0.675781,-0.53906 0.949219,-0.75 0.277343,-0.21875 0.457031,-0.36328 0.554687,-0.4414 0.933594,-0.72266 1.765625,-1.39844 2.492187,-2.02735 0.722657,-0.6289 1.359376,-1.22656 1.90625,-1.78515 0.542969,-0.5625 1,-1.10157 1.378907,-1.6211 0.371093,-0.51953 0.675781,-1.02734 0.910156,-1.53515 0.230469,-0.50782 0.398437,-1.01563 0.507813,-1.52735 0.101562,-0.51172 0.15625,-1.04687 0.15625,-1.60156 0,-1.01172 -0.175782,-1.96094 -0.519532,-2.84375 -0.34375,-0.87891 -0.863281,-1.64844 -1.550781,-2.30859 -0.6875,-0.66016 -1.542969,-1.17188 -2.5625,-1.55079 -1.019531,-0.375 -2.207031,-0.5625 -3.558594,-0.5625 -0.9375,0 -1.808593,0.0742 -2.621093,0.21485 -0.808594,0.14453 -1.597657,0.36719 -2.367188,0.66797 -0.765625,0.30859 -1.535156,0.69531 -2.308594,1.17187 -0.773437,0.47656 -1.585937,1.05469 -2.449218,1.73047 l 1.761718,2.64063 c 0.816406,-0.60547 1.550782,-1.09766 2.199219,-1.47657 0.652344,-0.3789 1.257813,-0.67187 1.816406,-0.8789 0.5625,-0.20703 1.101563,-0.35157 1.617188,-0.42578 0.511719,-0.0742 1.042969,-0.11329 1.582031,-0.11329 0.734375,0 1.402344,0.10157 2.007812,0.30469 0.601563,0.20313 1.113282,0.49219 1.535157,0.86328 0.421875,0.37891 0.746093,0.82813 0.980469,1.35157 0.234374,0.52343 0.347656,1.10156 0.347656,1.73437 0,0.37891 -0.03906,0.75391 -0.121094,1.12109 -0.07813,0.36329 -0.214844,0.74219 -0.410156,1.13282 -0.195313,0.38672 -0.453125,0.78906 -0.78125,1.20703 -0.332032,0.41797 -0.742188,0.87109 -1.230469,1.36328 -0.488281,0.48437 -1.070313,1.01562 -1.746094,1.58594 -0.675781,0.57031 -1.457031,1.19531 -2.34375,1.8789 -0.328125,0.26172 -0.695312,0.55078 -1.105469,0.86328 -0.410156,0.3125 -0.835937,0.63672 -1.28125,0.97266 -0.441406,0.33984 -0.890624,0.67969 -1.34375,1.02734 -0.457031,0.34375 -0.902343,0.67969 -1.332031,1 -1.003906,0.75 -2.03125,1.51563 -3.085937,2.30469 l 0.363281,2.4375 19.34375,0 0.367187,-3.10937 -13.898437,0 c 0.09766,-0.0781 0.289063,-0.22657 0.570313,-0.4375"
       id="path5"
       inkscape:connector-curvature="0" />
    <path
       style="fill:#000000;fill-opacity:1;fill-rule:nonzero;stroke:none"
       d="m 71.492188,163.94141 c -0.367188,1.20312 -0.878907,2.20312 -1.539063,2.98828 -0.65625,0.78125 -1.449219,1.36718 -2.371094,1.75 -0.925781,0.38672 -1.945312,0.57812 -3.058593,0.57812 -1.332032,0 -2.472657,-0.20312 -3.417969,-0.60937 -0.941407,-0.40235 -1.71875,-1.00391 -2.316407,-1.79688 -0.597656,-0.79297 -1.039062,-1.77734 -1.316406,-2.95703 -0.277344,-1.17578 -0.417968,-2.53516 -0.417968,-4.08203 0,-1.375 0.171874,-2.625 0.511718,-3.75781 0.34375,-1.12891 0.84375,-2.10157 1.507813,-2.91016 0.664062,-0.80859 1.476562,-1.44141 2.445312,-1.88672 0.964844,-0.44922 2.066407,-0.67187 3.308594,-0.67187 2.386719,0 4.1875,0.75 5.398437,2.24609 1.210938,1.5 1.816407,3.77734 1.816407,6.82813 0,1.64843 -0.183594,3.07812 -0.550781,4.28125 M 65.09375,147.47266 c -1.28125,0 -2.476562,0.14453 -3.582031,0.4375 -1.109375,0.28906 -2.113281,0.70312 -3.019531,1.23828 -0.90625,0.53906 -1.71875,1.17968 -2.425782,1.94531 -0.707031,0.75781 -1.300781,1.60937 -1.785156,2.55078 -0.480469,0.9375 -0.847656,1.95313 -1.101562,3.04297 -0.25,1.08984 -0.375,2.23437 -0.375,3.44141 0,1.91406 0.214843,3.63281 0.65625,5.14843 0.4375,1.51172 1.117187,2.79688 2.03125,3.84766 0.917968,1.04687 2.082031,1.85156 3.5,2.40234 1.417968,0.55078 3.105468,0.82813 5.0625,0.82813 1.316406,0 2.53125,-0.14453 3.648437,-0.4336 1.113281,-0.29296 2.125,-0.70703 3.035156,-1.24218 0.910157,-0.53516 1.714844,-1.1875 2.410157,-1.95313 0.695312,-0.76953 1.285156,-1.6289 1.761718,-2.58203 0.476563,-0.95312 0.835938,-1.99609 1.074219,-3.12109 0.242187,-1.125 0.359375,-2.31641 0.359375,-3.5625 0,-3.94532 -0.925781,-6.92578 -2.78125,-8.94922 -1.859375,-2.02735 -4.679688,-3.03906 -8.46875,-3.03906"
       id="path7"
       inkscape:connector-curvature="0" />
    <path
       style="fill:#000000;fill-opacity:1;fill-rule:nonzero;stroke:none"
       d="m 79.917969,151.42187 6.679687,0.20313 0,20.47656 4.152344,0 0,-23.94531 -10.734375,0.40625 z m 0,0"
       id="path9"
       inkscape:connector-curvature="0" />
    <path
       style="fill:#000000;fill-opacity:1;fill-rule:nonzero;stroke:none"
       d="m 110.64844,166.50781 -10.6211,0 c 1.80079,-2.29297 3.57422,-4.57812 5.32813,-6.84765 1.75781,-2.26954 3.51953,-4.55079 5.29297,-6.84375 z m 4,-18.40625 -3.83594,-0.3164 c -2.4375,3.16406 -4.88281,6.32031 -7.33203,9.45703 -2.45313,3.14062 -4.902345,6.28125 -7.351564,9.41797 l 0.585938,2.90234 13.933596,0 0,10.11328 4,-0.20312 0,-9.91016 4.2539,0 0.20313,-3.05469 -4.45703,0 z m 0,0"
       id="path11"
       inkscape:connector-curvature="0" />
    <path
       style="fill:#000000;fill-opacity:1;fill-rule:nonzero;stroke:none"
       d="m 122.42188,160.64844 24.88281,0 0.20312,-2.84766 -24.78515,0 z m 0,0"
       id="path13"
       inkscape:connector-curvature="0" />
    <path
       style="fill:#000000;fill-opacity:1;fill-rule:nonzero;stroke:none"
       d="m 157.77344,168.55469 c 0.28125,-0.21875 0.59765,-0.46485 0.96093,-0.75391 0.36329,-0.28906 0.75,-0.59375 1.16016,-0.91406 0.41016,-0.31641 0.79297,-0.625 1.15234,-0.91016 0.35938,-0.28515 0.67579,-0.53906 0.94922,-0.75 0.27344,-0.21875 0.45703,-0.36328 0.55078,-0.4414 0.9336,-0.72266 1.76563,-1.39844 2.49219,-2.02735 0.72656,-0.6289 1.35938,-1.22656 1.90625,-1.78515 0.54297,-0.5625 1.00391,-1.10157 1.37891,-1.6211 0.375,-0.51953 0.67578,-1.02734 0.91015,-1.53515 0.23438,-0.50782 0.40235,-1.01563 0.50782,-1.52735 0.10547,-0.51172 0.15625,-1.04687 0.15625,-1.60156 0,-1.01172 -0.17188,-1.96094 -0.51563,-2.84375 -0.34765,-0.87891 -0.86328,-1.64844 -1.55078,-2.30859 -0.6875,-0.66016 -1.54297,-1.17188 -2.56641,-1.55079 -1.01953,-0.375 -2.20703,-0.5625 -3.55468,-0.5625 -0.9375,0 -1.8125,0.0742 -2.6211,0.21485 -0.80859,0.14453 -1.59765,0.36719 -2.36328,0.66797 -0.77344,0.30859 -1.54297,0.69531 -2.3125,1.17187 -0.77344,0.47656 -1.58984,1.05469 -2.45312,1.73047 l 1.76172,2.64063 c 0.82031,-0.60547 1.55468,-1.09766 2.20312,-1.47657 0.64844,-0.3789 1.25781,-0.67187 1.81641,-0.8789 0.5625,-0.20703 1.10156,-0.35157 1.61328,-0.42578 0.51562,-0.0742 1.04297,-0.11329 1.58203,-0.11329 0.73437,0 1.40625,0.10157 2.00391,0.30469 0.60546,0.20313 1.12109,0.49219 1.54296,0.86328 0.41797,0.37891 0.7461,0.82813 0.98047,1.35157 0.23047,0.52343 0.34766,1.10156 0.34766,1.73437 0,0.37891 -0.043,0.75391 -0.12109,1.12109 -0.082,0.36329 -0.21485,0.74219 -0.41016,1.13282 -0.19531,0.38672 -0.45703,0.78906 -0.78516,1.20703 -0.32812,0.41797 -0.73828,0.87109 -1.22656,1.36328 -0.49219,0.48437 -1.07422,1.01562 -1.74609,1.58594 -0.67969,0.57031 -1.45703,1.19531 -2.34375,1.8789 -0.33203,0.26172 -0.69922,0.55078 -1.10938,0.86328 -0.41015,0.3125 -0.83594,0.63672 -1.27734,0.97266 -0.44531,0.33984 -0.89063,0.67969 -1.34766,1.02734 -0.45703,0.34375 -0.89844,0.67969 -1.32812,1 -1.00782,0.75 -2.03516,1.51563 -3.08985,2.30469 l 0.36719,2.4375 19.33984,0 0.36719,-3.10937 -13.89844,0 c 0.10547,-0.0781 0.29297,-0.22657 0.57032,-0.4375"
       id="path15"
       inkscape:connector-curvature="0" />
    <path
       style="fill:#000000;fill-opacity:1;fill-rule:nonzero;stroke:none"
       d="m 193.92969,163.94141 c -0.36719,1.20312 -0.87891,2.20312 -1.53907,2.98828 -0.65625,0.78125 -1.44531,1.36718 -2.375,1.75 -0.91796,0.38672 -1.9375,0.57812 -3.05468,0.57812 -1.33203,0 -2.46875,-0.20312 -3.41407,-0.60937 -0.94921,-0.40235 -1.71875,-1.00391 -2.32031,-1.79688 -0.59765,-0.79297 -1.03515,-1.77734 -1.3125,-2.95703 -0.28125,-1.17578 -0.41797,-2.53516 -0.41797,-4.08203 0,-1.375 0.16797,-2.625 0.51172,-3.75781 0.34375,-1.12891 0.84375,-2.10157 1.50781,-2.91016 0.66016,-0.80859 1.47657,-1.44141 2.44141,-1.88672 0.96875,-0.44922 2.07031,-0.67187 3.30859,-0.67187 2.39063,0 4.1875,0.75 5.39844,2.24609 1.21094,1.5 1.81641,3.77734 1.81641,6.82813 0,1.64843 -0.1836,3.07812 -0.55078,4.28125 m -6.39844,-16.46875 c -1.28125,0 -2.47656,0.14453 -3.57813,0.4375 -1.10937,0.28906 -2.11328,0.70312 -3.01953,1.23828 -0.91015,0.53906 -1.71484,1.17968 -2.42578,1.94531 -0.70703,0.75781 -1.30469,1.60937 -1.78515,2.55078 -0.48047,0.9375 -0.84766,1.95313 -1.10157,3.04297 -0.2539,1.08984 -0.3789,2.23437 -0.3789,3.44141 0,1.91406 0.21875,3.63281 0.65625,5.14843 0.4414,1.51172 1.11718,2.79688 2.03515,3.84766 0.91407,1.04687 2.07813,1.85156 3.4961,2.40234 1.41797,0.55078 3.10937,0.82813 5.0625,0.82813 1.32031,0 2.53515,-0.14453 3.64843,-0.4336 1.11329,-0.29296 2.125,-0.70703 3.03516,-1.24218 0.91406,-0.53516 1.71875,-1.1875 2.41406,-1.95313 0.69532,-0.76953 1.28125,-1.6289 1.75782,-2.58203 0.47656,-0.95312 0.83593,-1.99609 1.07812,-3.12109 0.23828,-1.125 0.35938,-2.31641 0.35938,-3.5625 0,-3.94532 -0.92579,-6.92578 -2.78516,-8.94922 -1.85547,-2.02735 -4.67969,-3.03906 -8.46875,-3.03906"
       id="path17"
       inkscape:connector-curvature="0" />
    <path
       style="fill:#000000;fill-opacity:1;fill-rule:nonzero;stroke:none"
       d="m 209.50781,168.55469 c 0.27735,-0.21875 0.59766,-0.46485 0.96094,-0.75391 0.36328,-0.28906 0.75,-0.59375 1.16016,-0.91406 0.41015,-0.31641 0.79296,-0.625 1.15234,-0.91016 0.35547,-0.28515 0.67187,-0.53906 0.94531,-0.75 0.27735,-0.21875 0.46094,-0.36328 0.55078,-0.4414 0.9375,-0.72266 1.76953,-1.39844 2.49219,-2.02735 0.73047,-0.6289 1.36328,-1.22656 1.90625,-1.78515 0.54688,-0.5625 1.00781,-1.10157 1.37891,-1.6211 0.3789,-0.51953 0.67968,-1.02734 0.91406,-1.53515 0.23047,-0.50782 0.39844,-1.01563 0.50391,-1.52735 0.10937,-0.51172 0.16015,-1.04687 0.16015,-1.60156 0,-1.01172 -0.17187,-1.96094 -0.51953,-2.84375 -0.34766,-0.87891 -0.86328,-1.64844 -1.55078,-2.30859 -0.6875,-0.66016 -1.54297,-1.17188 -2.5625,-1.55079 -1.01953,-0.375 -2.20703,-0.5625 -3.55859,-0.5625 -0.9336,0 -1.8086,0.0742 -2.61719,0.21485 -0.8125,0.14453 -1.59766,0.36719 -2.36719,0.66797 -0.76953,0.30859 -1.53906,0.69531 -2.3125,1.17187 -0.76953,0.47656 -1.58594,1.05469 -2.44922,1.73047 l 1.76172,2.64063 c 0.81641,-0.60547 1.55078,-1.09766 2.20313,-1.47657 0.64843,-0.3789 1.2539,-0.67187 1.8125,-0.8789 0.5625,-0.20703 1.10156,-0.35157 1.61718,-0.42578 0.51563,-0.0742 1.03907,-0.11329 1.58203,-0.11329 0.73438,0 1.40235,0.10157 2.00391,0.30469 0.60547,0.20313 1.11719,0.49219 1.53906,0.86328 0.42188,0.37891 0.75,0.82813 0.98047,1.35157 0.23438,0.52343 0.35156,1.10156 0.35156,1.73437 0,0.37891 -0.0391,0.75391 -0.12109,1.12109 -0.082,0.36329 -0.21875,0.74219 -0.41406,1.13282 -0.19531,0.38672 -0.45313,0.78906 -0.78516,1.20703 -0.32812,0.41797 -0.73828,0.87109 -1.22656,1.36328 -0.48828,0.48437 -1.07031,1.01562 -1.74609,1.58594 -0.67579,0.57031 -1.45704,1.19531 -2.34375,1.8789 -0.32813,0.26172 -0.69532,0.55078 -1.10547,0.86328 -0.41016,0.3125 -0.83594,0.63672 -1.28125,0.97266 -0.44141,0.33984 -0.89063,0.67969 -1.34766,1.02734 -0.45312,0.34375 -0.89453,0.67969 -1.32422,1 -1.00781,0.75 -2.03906,1.51563 -3.09375,2.30469 l 0.3711,2.4375 19.33984,0 0.36719,-3.10937 -13.89844,0 c 0.0977,-0.0781 0.28906,-0.22657 0.57031,-0.4375"
       id="path19"
       inkscape:connector-curvature="0" />
    <path
       style="fill:#000000;fill-opacity:1;fill-rule:nonzero;stroke:none"
       d="m 245.66406,163.94141 c -0.36719,1.20312 -0.88281,2.20312 -1.53906,2.98828 -0.65625,0.78125 -1.44922,1.36718 -2.37109,1.75 -0.92579,0.38672 -1.94532,0.57812 -3.0586,0.57812 -1.33203,0 -2.47265,-0.20312 -3.41797,-0.60937 -0.94531,-0.40235 -1.71484,-1.00391 -2.3164,-1.79688 -0.59766,-0.79297 -1.03907,-1.77734 -1.31641,-2.95703 -0.27734,-1.17578 -0.41406,-2.53516 -0.41406,-4.08203 0,-1.375 0.16797,-2.625 0.51172,-3.75781 0.33984,-1.12891 0.84375,-2.10157 1.5039,-2.91016 0.66407,-0.80859 1.47657,-1.44141 2.44532,-1.88672 0.96484,-0.44922 2.0664,-0.67187 3.30859,-0.67187 2.38672,0 4.1875,0.75 5.39844,2.24609 1.21093,1.5 1.8164,3.77734 1.8164,6.82813 0,1.64843 -0.18359,3.07812 -0.55078,4.28125 m -6.39844,-16.46875 c -1.28125,0 -2.47656,0.14453 -3.58203,0.4375 -1.10547,0.28906 -2.11328,0.70312 -3.01953,1.23828 -0.90625,0.53906 -1.71484,1.17968 -2.42187,1.94531 -0.71094,0.75781 -1.30469,1.60937 -1.78516,2.55078 -0.48437,0.9375 -0.85156,1.95313 -1.10156,3.04297 -0.25391,1.08984 -0.38281,2.23437 -0.38281,3.44141 0,1.91406 0.22265,3.63281 0.66015,5.14843 0.4375,1.51172 1.11719,2.79688 2.03125,3.84766 0.91797,1.04687 2.08203,1.85156 3.5,2.40234 1.41797,0.55078 3.10547,0.82813 5.0625,0.82813 1.31641,0 2.53125,-0.14453 3.64453,-0.4336 1.11328,-0.29296 2.12891,-0.70703 3.03907,-1.24218 0.91406,-0.53516 1.71484,-1.1875 2.41015,-1.95313 0.69922,-0.76953 1.28516,-1.6289 1.76172,-2.58203 0.47656,-0.95312 0.83594,-1.99609 1.07813,-3.12109 0.23828,-1.125 0.35937,-2.31641 0.35937,-3.5625 0,-3.94532 -0.92969,-6.92578 -2.78516,-8.94922 -1.85546,-2.02735 -4.67968,-3.03906 -8.46875,-3.03906"
       id="path21"
       inkscape:connector-curvature="0" />
    <path
       style="fill:#000000;fill-opacity:1;fill-rule:nonzero;stroke:none"
       d="m 242.0625,124.47266 c -2.70703,3.54296 -8.39453,7.18359 -13.33594,7.18359 -5.22265,0 -7.83594,-3.17188 -7.83594,-7.83594 0,-4.47656 5.96875,-6.34375 21.26563,-7.36718 z m -25.83203,-0.0937 c 0,7.73828 5.1289,11.00781 11.09375,11.00781 5.6914,0 10.91406,-2.33203 14.83203,-6.71875 0,4.29297 1.58594,6.34375 5.78125,6.34375 2.79687,0 5.31641,-0.5586 7.17969,-1.21485 l -0.27735,-3.44921 c -1.67968,0.375 -3.82422,0.65234 -5.6914,0.65234 -2.05078,0 -2.32813,-0.74609 -2.32813,-2.89063 l 0.0937,-25.92578 c 0,-7.273434 -3.17187,-11.191402 -10.54297,-11.191402 -7.73828,0 -12.77343,2.144531 -17.99609,5.96875 l 2.33203,3.265622 c 4.19531,-3.265622 9.88672,-5.222654 14.64063,-5.222654 4.85156,0 7.08593,2.234375 6.99609,7.644534 l -0.0937,10.07422 c -22.94141,1.49218 -26.01953,5.78125 -26.01953,11.65625"
       id="path23"
       inkscape:connector-curvature="0" />
    <path
       style="fill:#000000;fill-opacity:1;fill-rule:nonzero;stroke:none"
       d="m 188.62891,125.40625 c 0,6.80469 2.89062,9.88281 9.41796,9.88281 4.19532,0 8.11329,-1.02344 11.65625,-3.17187 l -1.30468,-3.63282 c -3.07813,1.67969 -6.33985,2.70313 -9.41797,2.70313 -4.10156,0 -5.69141,-1.67969 -5.69141,-6.24609 l 0,-29.00391 14.92188,0 0.28125,-4.105469 -15.20313,0 0,-14.550781 -3.82422,0.375 -0.83593,14.265625 -5.78125,0.378906 -0.375,3.261719 6.15625,0.1875 z m 0,0"
       id="path25"
       inkscape:connector-curvature="0" />
    <path
       style="fill:#000000;fill-opacity:1;fill-rule:nonzero;stroke:none"
       d="m 170.82031,135.01172 c 2.79688,0 5.21875,-0.375 7.08594,-1.02735 l -0.28125,-3.44921 c -1.76953,0.37109 -3.73047,0.55859 -5.6875,0.55859 -1.95703,0 -2.24219,-0.74609 -2.24219,-2.79688 l -0.28906,-59.499995 -4.66406,0.371094 0.29297,59.218751 c 0,4.66797 1.58593,6.625 5.78515,6.625"
       id="path27"
       inkscape:connector-curvature="0" />
    <path
       style="fill:#000000;fill-opacity:1;fill-rule:nonzero;stroke:none"
       d="m 126.34375,72.058594 -4.57422,0 0,37.308596 c 0,14.08203 -4.9375,21.72656 -19.20703,21.72656 -13.804688,0 -18.46875,-6.99219 -18.46875,-20.70312 l 0,-38.332036 -4.753906,0 0,39.171876 c 0,15.48047 5.59375,23.96875 23.035156,23.96875 16.78516,0 23.96875,-10.44922 23.96875,-25.55469 z m 0,0"
       id="path29"
       inkscape:connector-curvature="0" />
    <path
       style="fill:#000000;fill-opacity:1;fill-rule:nonzero;stroke:none"
       d="m 142.00391,104.60938 7.36718,0 0,-6.250005 -7.36718,0 z m 0,0"
       id="path31"
       inkscape:connector-curvature="0" />
    <path
       style="fill:#000000;fill-opacity:1;fill-rule:nonzero;stroke:none"
       d="m 65.824219,130.72266 -30.589844,0 0,-26.67188 26.484375,0 0,-4.01172 -26.484375,0 0,-24.062498 30.589844,0 0.277343,-3.917968 -35.71875,0 0,62.578126 35.71875,0 z m 0,0"
       id="path33"
       inkscape:connector-curvature="0" />
    <path
       style="fill:#000000;fill-opacity:1;fill-rule:nonzero;stroke:none"
       d="m 142.00391,128.67187 7.36718,0 0,-6.24999 -7.36718,0 z m 0,0"
       id="path35"
       inkscape:connector-curvature="0" />
    <path
       style="fill:#7fbd3f;fill-opacity:1;fill-rule:nonzero;stroke:none"
       d="m 48.609375,28.347656 6.964844,0 -10.699219,29.453125 -7.046875,0 -9.480469,-29.453125 8.386719,0 5.121094,18.125 c 0.210937,0.796875 0.292969,1.59375 0.292969,2.140625 0,-0.546875 0.167968,-1.429687 0.421874,-2.140625 z m 8.976563,29.453125 0,-20.097656 7.050781,-0.335937 0,20.433593 z m 0.08203,-29.410156 6.796875,0 0,5.953125 -6.796875,0 z m 21.1875,29.453125 c -0.503907,0 -2.054688,-0.04297 -2.472657,-0.08594 l 0,4.765626 -7.175781,0.375 0,-25.363282 L 75.5,37.199219 c 0.25,0.714843 0.375,1.386719 0.542969,2.351562 1.808593,-1.722656 3.734375,-2.5625 6.042969,-2.5625 4.152343,0 7.21875,2.773438 7.21875,10.03125 0,5.789063 -2.605469,10.824219 -10.449219,10.824219 m 0.253906,-15.144531 c -0.96875,0 -1.804687,0.414062 -2.726563,1.046875 l 0,9.144531 c 0.542969,0.167969 1.46875,0.292969 2.179688,0.292969 2.347656,0 3.523438,-1.507813 3.523438,-5.578125 0,-3.359375 -1.175782,-4.90625 -2.976563,-4.90625 M 92.824219,37.703125 100,37.410156 100,50.75 c 0,1.09375 0.33594,1.46875 1.21875,1.46875 0.87891,0 1.80078,-0.5 3.10156,-1.550781 l 0,-12.964844 7.13282,-0.292969 0,20.222656 -6.29297,0.378907 c -0.25391,-0.671875 -0.42188,-1.808594 -0.58594,-2.773438 -1.92969,1.722657 -4.40625,2.9375 -6.421876,2.9375 -3.859375,0 -5.328125,-1.84375 -5.328125,-5.871093 z m 31.421871,10.277344 c 0.25391,0.84375 0.37891,1.636719 0.37891,2.183593 0,-0.546874 0.125,-1.382812 0.37891,-2.183593 l 3.4375,-10.359375 6.41796,0 -7.58984,20.179687 -6.46094,0 -7.17578,-20.179687 7.42578,0 z m 21.64844,10.152343 c -6.83984,0 -9.90234,-3.355468 -9.90234,-10.234374 0,-6.5 4.07031,-10.824219 10.82422,-10.824219 6.8789,0 10.02734,3.230469 10.02734,10.109375 0,6.292968 -3.82031,10.949218 -10.94922,10.949218 m 0.58594,-16.0625 c -1.96875,0 -3.10547,1.675782 -3.10547,5.28125 0,4.410157 0.71484,5.875 2.89453,5.875 2.35156,0 3.19141,-1.71875 3.19141,-5.832031 0,-3.984375 -0.88282,-5.324219 -2.98047,-5.324219 m 13.88281,15.730469 0,-20.097656 7.05078,-0.335937 0,20.433593 z m 0.0859,-29.410156 6.79687,0 0,5.953125 -6.79687,0 z m 34.65234,16.027344 c 0,-1.09375 -0.46094,-1.429688 -1.33984,-1.429688 -0.88281,0 -2.14063,0.671875 -3.31641,1.679688 l 0,13.132812 -6.88281,0 0,-13.382812 c 0,-1.09375 -0.45703,-1.429688 -1.33594,-1.429688 -0.88281,0 -2.18359,0.671875 -3.35937,1.679688 l 0,13.132812 -6.87891,0 0,-20.265625 6.125,-0.335937 c 0.25,0.628906 0.46094,1.804687 0.58594,2.769531 2.09765,-1.757812 4.40625,-2.980469 6.5039,-2.980469 3.23047,0 4.44922,1.34375 4.99219,3.105469 1.63672,-1.507812 4.23828,-3.105469 6.375,-3.105469 4.15625,0 5.45703,1.890625 5.45703,5.625 l 0,15.1875 -6.92578,0 z m 16.23438,13.714843 c -3.23047,0 -5.8711,-2.433593 -5.8711,-6.414062 0,-2.980469 1.63282,-4.996094 11.41016,-5.75 l 0,-2.015625 c 0,-1.339844 -0.37891,-1.71875 -1.42969,-1.71875 -2.13672,0 -4.57031,0.878906 -6.625,2.265625 l -2.64453,-4.195312 c 3.14844,-2.265626 6.50391,-3.398438 10.99219,-3.398438 5.11719,0 6.83984,2.515625 6.83984,6.503906 l 0,8.558594 c 0,0.503906 0.41797,0.628906 2.22266,0.964844 l -1.13281,5.078125 c -0.75391,0.03906 -1.42579,0.03906 -2.01563,0.03906 -3.85937,0 -5.24219,-0.796875 -5.95703,-2.351562 -1.63672,1.808593 -3.3125,2.433593 -5.78906,2.433593 m 0.83984,-6.625 c 0,1.257813 0.71484,2.136719 1.88672,2.136719 1.21875,0 2.18359,-0.542969 2.76953,-1.089843 l 0,-3.0625 c -4.32031,0.375 -4.65625,0.839843 -4.65625,2.015624 m 21.64844,6.625 c -3.23438,0 -5.875,-2.433593 -5.875,-6.414062 0,-2.980469 1.63281,-4.996094 11.41015,-5.75 l 0,-2.015625 c 0,-1.339844 -0.3789,-1.71875 -1.42578,-1.71875 -2.14062,0 -4.57031,0.878906 -6.6289,2.265625 l -2.64453,-4.195312 c 3.14843,-2.265626 6.5039,-3.398438 10.99218,-3.398438 5.1211,0 6.83985,2.515625 6.83985,6.503906 l 0,8.558594 c 0,0.503906 0.42187,0.628906 2.22656,0.964844 l -1.13672,5.078125 c -0.75781,0.03906 -1.42578,0.03906 -2.01562,0.03906 -3.85547,0 -5.24219,-0.796875 -5.95704,-2.351562 -1.63281,1.808593 -3.3125,2.433593 -5.78515,2.433593 m 0.83594,-6.625 c 0,1.257813 0.71484,2.136719 1.88671,2.136719 1.21875,0 2.1836,-0.542969 2.76954,-1.089843 l 0,-3.0625 c -4.32032,0.375 -4.65625,0.839843 -4.65625,2.015624"
       id="path37"
       inkscape:connector-curvature="0" />
  </g>
</svg>
